<svg height="24" viewBox="0 0 24 24" width="24" xmlns="http://www.w3.org/2000/svg"><path d="m12.8191776 24h-11.49456184c-.73177943 0-1.32461576-.5932042-1.32461576-1.3246986v-21.35069592c0-.73168063.59292945-1.32460548 1.32461576-1.32460548h21.35086164c.7315 0 1.3245226.59292485 1.3245226 1.32460548v21.35069592c0 .7315875-.5931157 1.3246986-1.3245226 1.3246986h-6.1158248v-9.2941227h3.119608l.467117-3.6220845h-3.586725v-2.3124721c0-1.04867705.2912032-1.76331586 1.7949922-1.76331586l1.9180109-.00083812v-3.23962145c-.3317127-.0441411-1.4702639-.14276014-2.7948797-.14276014-2.7653589 0-4.6585984 1.687978-4.6585984 4.7878193v2.67118837h-3.1276167v3.6220845h3.1276167z" fill="#717982" fill-rule="evenodd"/></svg>