<svg height="80" viewBox="0 0 80 80" width="80" xmlns="http://www.w3.org/2000/svg"><g fill="none" fill-rule="evenodd" transform=""><circle cx="40" cy="40" fill="#6e66ff" fill-rule="nonzero" r="40"/><g fill="#fff"><path d="m34.1982 35.3956c1.754-2.02 1.538-5.078-.482-6.832-2.018-1.752-10.484-2.69-10.484-2.69s1.7 7.886 4.138 10.002c2.02 1.752 5.076 1.536 6.828-.48"/><path d="m41.999 38.1422c0-.646.204-1.388.57-2.148 2.758 1.79 6.48 1.45 8.862-.998 2.71-2.78 4.774-14.986 4.774-14.986s-11.584 1.814-14.854 5.174c-2 2.054-2.48 5.014-1.482 7.516-1.26 1.84-1.87 3.792-1.87 5.442v5.858h4z"/><path d="m51.3476 46.001h-22.698c-.628 0-1.218.296-1.596.796s-.498 1.15-.326 1.754l2.858 10c.244.858 1.028 1.45 1.922 1.45h16.982c.894 0 1.678-.592 1.924-1.45l2.858-10c.172-.604.05-1.254-.328-1.754s-.968-.796-1.596-.796"/></g></g></svg>