<svg height="80" viewBox="0 0 80 80" width="80" xmlns="http://www.w3.org/2000/svg"><g fill="none" fill-rule="evenodd"><circle cx="40" cy="40" fill="#4dccff" fill-rule="nonzero" r="40"/><g fill="#fff" transform="translate(21 20)"><path d="m4.0058 14.0078h32c1.104 0 2-.894 2-2v-2.7c0-.79-.464-1.506-1.188-1.828l-16-7.11c-.518-.23-1.106-.23-1.624 0l-16 7.11c-.722.322-1.188 1.038-1.188 1.828v2.7c0 1.106.896 2 2 2"/><path d="m39.129 33.3764-.668-2c-.272-.818-1.036-1.368-1.896-1.368h-2.56v-14h-4v14h-4v-14h-4v14h-4v-14h-4v14h-4v-14h-4v14h-2.558c-.86 0-1.624.55-1.898 1.368l-.666 2c-.204.61-.1 1.28.276 1.802s.978.83 1.622.83h34.45c.642 0 1.246-.308 1.622-.83s.478-1.192.276-1.802"/></g></g></svg>