<svg height="80" viewBox="0 0 80 80" width="80" xmlns="http://www.w3.org/2000/svg"><g fill="none" fill-rule="evenodd" transform=""><circle cx="40" cy="40" fill="#fac519" fill-rule="nonzero" r="40"/><path d="m41 47.001c-4.1 0-7.612-2.472-9.156-6h18.312c-1.544 3.528-5.056 6-9.156 6m-6-16.5c1.378 0 2.5 1.12 2.5 2.5s-1.122 2.5-2.5 2.5-2.5-1.12-2.5-2.5 1.122-2.5 2.5-2.5m12 0c1.378 0 2.5 1.12 2.5 2.5s-1.122 2.5-2.5 2.5-2.5-1.12-2.5-2.5 1.122-2.5 2.5-2.5m10-7.5h-32c-2.21 0-4 1.792-4 4v24c0 2.208 1.79 4 4 4h2v8l8-8h22c2.21 0 4-1.792 4-4v-24c0-2.208-1.79-4-4-4" fill="#fff"/></g></svg>