<svg height="80" viewBox="0 0 80 80" width="80" xmlns="http://www.w3.org/2000/svg"><g fill="none"><circle cx="40" cy="40" fill="#ff4d6a" r="40"/><path d="m32.831122 0c-1.5172683 0-2.7482927 1.22269091-2.7482927 2.73163636v4.77556364c-3.5464391 3.0519273-7.3852683 5.7189818-11.6253659 7.7149091-.6207805.1309091-1.2108293.3979636-1.7323902.7662545-.0579512.0244364-.1159025.0532364-.1747317.0768-.8596098.3534546-1.3363903 1.0359273-1.4988293 1.7733819-4.1531707-.4206546-8.2132683-1.1825455-12.17063415-2.5536-2.87736585-.9975273-4.1022439 3.5284363-1.25297561 4.5163636 4.65278049 1.6128 9.47590246 2.3816727 14.37190246 2.8154182.0122927.0017454.0210731-.0008728.0333658 0 3.4639025 3.3085091 7.6908293 5.0827636 12.4999025 5.1735272.5733658.0104728 1.0896585-.073309 1.5506341-.2260363v17.3018182c0 1.5089454 1.2310244 2.7307636 2.7509268 2.7307636 1.5199025 0 2.7500488-1.2183273 2.7500488-2.7307636v-42.13440004c-.0035122-1.50894545-1.2345366-2.73163636-2.7535609-2.73163636zm-2.7482927 19.2654545c-.4425366-.1570909-.9368781-.2504727-1.4874147-.2600727-1.8052683-.0340363-3.348-.4834909-4.7563902-1.3815273 2.1714146-1.234909 4.2471219-2.6103272 6.2438049-4.1175272zm-16.2439025-13.88247268c2.6025366 0 4.7133659 2.09716363 4.7133659 4.68392728 0 2.5867636-2.1099512 4.6839273-4.7133659 4.6839273-2.6025366 0-4.71248778-2.0971637-4.71248778-4.6839273 0-2.58676365 2.10995118-4.68392728 4.71248778-4.68392728z" fill="#fff" transform="translate(18 17)"/></g></svg>