<svg height="80" viewBox="0 0 80 80" width="80" xmlns="http://www.w3.org/2000/svg"><g fill="none" fill-rule="evenodd" transform=""><circle cx="40" cy="40" fill="#57d96c" fill-rule="nonzero" r="40"/><g fill="#fff"><path d="m40.002 27.0044c3.308 0 6-2.692 6-6s-2.692-5.998-6-5.998-6 2.69-6 5.998 2.692 6 6 6"/><path d="m32.002 45.0044h2v8c0 1.106.896 2 2 2h8c1.104 0 2-.894 2-2v-8h2c1.104 0 2-.894 2-2v-4c0-5.512-4.486-10-10-10s-10 4.488-10 10v4c0 1.106.896 2 2 2"/><path d="m52.6816 48.6524-1.156 3.828c3.698 1.118 4.476 2.332 4.476 2.524 0 1.028-5.5 4-16 4-10.498 0-16-2.972-16-4 0-.202.834-1.476 4.792-2.618l-1.11-3.844c-6.348 1.834-7.682 4.526-7.682 6.462 0 5.496 10.368 8 20 8 9.634 0 20-2.504 20-8 0-1.888-1.27-4.526-7.32-6.352"/></g></g></svg>