<svg height="80" viewBox="0 0 80 80" width="80" xmlns="http://www.w3.org/2000/svg"><g fill="none" fill-rule="evenodd" transform=""><circle cx="40" cy="40" fill="#ff7a38" fill-rule="nonzero" r="40"/><g fill="#fff"><path d="m40 33.002c0 1.104.896 2 2 2h10c1.104 0 2-.896 2-2v-16c0-1.102-.896-2-2-2h-10c-1.104 0-2 .898-2 2v6h-20v4h20z"/><path d="m34 39.002h-12c-.738 0-1.416.406-1.764 1.056s-.31 1.438.1 2.054l4 6c.306.46.79.772 1.334.862l8.33 1.39z"/><path d="m58.7432 46.8594c.758-.304 1.256-1.04 1.256-1.858v-6c0-1.102-.894-2-2-2h-20c-1.104 0-2 .898-2 2v12.766l-6.894 3.446c-.678.338-1.106 1.03-1.106 1.788v4c0 1.106.896 2 2 2h28c1.106 0 2-.894 2-2v-4c0-.818-.498-1.552-1.256-1.856l-8.744-3.496v-1.294z"/></g></g></svg>