<svg height="146" viewBox="0 0 505 146" width="505" xmlns="http://www.w3.org/2000/svg"><g fill="none" fill-rule="evenodd"><g fill-rule="nonzero" transform="translate(-19 -16)"><path d="m0 0h73v73h-73z" fill="#d8d8d8" opacity="0"/><path d="m19 17 3.1852623 36.015551 14.2934071 3.984449 14.3328846-3.9799508 3.188446-36.0200492zm28.3747817 8.5269973-.1996161 2.3043681-.0878694 1.0567577h-16.7668006l.4001873 4.4982088h15.9680178l-.1069713 1.1152344-1.0292807 11.6050573-.0757714.7293524-8.9766773 2.4897586v.0006426l-.0108245.0057834-8.9706283-2.3850146-.6090362-6.813501h4.3982408l.3116813 3.5082815 4.8668771 1.3112279h.0136898v-.1754302l4.8885261-1.2450399.5106607-5.6481437h-15.1854715l-1.0770358-12.2470159-.1047427-1.2476103h21.947906z" fill="#717982"/></g><g transform="translate(74 -16)"><path d="m0 0h73v73h-73z" fill="#d8d8d8" fill-rule="nonzero" opacity="0"/><path d="m60.1353175 34.8327495c-.2380953-.5247728-.3531746-1.1456934-.3777778-1.7302556-.0611111-1.4385805-.009127-2.8824128-.0730159-4.3209932-.0571428-1.2882992-.5087301-2.4493439-1.7238095-3.1134906-1.0698413-.5845622-2.3099206-.6427356-3.5003968-.656471v2.2990625c.3968254.0137354.2992063.0262588.3960317.0315106 1.5988095.0799885 2.1345238.5962777 2.1547619 2.2109944.0150794 1.200635.0047619 2.4020779.0238095 3.6023089.0234127 1.4563557.2369048 2.8464584 1.5452381 3.7659218.0222223.0157553.0202381.0735247.0329365.1405858-.665873.4815467-1.1928571 1.1016593-1.3460317 1.948002-.1234127.6847497-.193254 1.3856588-.2142857 2.0817201-.0380953 1.2596163.0011905 2.5220606-.034127 3.781677-.0277778.9865244-.4869048 1.449488-1.4301587 1.6692543-.3551588.0832203-.7313492.112711-1.1281746.1640168v2.2934067c.7936508-.0484779 1.1972222-.0803925 1.740873-.1401818 2.0460317-.2254221 3.1980158-1.3093062 3.434127-3.330025.0738095-.633444.0654762-1.2790075.079365-1.9189153.0261905-1.199423.0126985-2.4045018.118254-3.5966532.1075397-1.2163903.9765873-1.8886166 2.1670635-1.8215556v-2.4040978c-.7936508.1446256-1.525-.204819-1.8646825-.9558218zm-37.2964286 4.9015156c-.0003968-4.66559-.1246032-9.33118-.1246032-13.9963661v-.7340356c-1.1904762 0-2.4706349-.0117154-3.7265873.0056558-.5099206.0068677-.9595238.0513057-1.4650794.1215986-1.9353174.2682442-2.8682539 1.1929593-3.2111111 3.1559087-.0992063.566383-.079365 1.154985-.0876984 1.7342954-.0154762 1.1012554.0154762 2.2029148-.0019841 3.3037661-.0218254 1.3864668-.6634921 2.4610594-2.052381 2.5426638-.0492063.0028279.227381.0605973-.1694444.0953398v2.1431254c1.5873016.2537008 2.0924603.906132 2.1980159 2.4073297.0166666.2391574.0210317.4803348.0234127.7207042.013492 1.3412207-.0015873 2.6844614.0579365 4.0232583.0559524 1.2495169.3285714 2.3661236 1.488492 3.0217866 1.0833334.612437 2.5813492.6621268 3.375.6940414v-2.288155c0-.0193911-.0833333-.0371664-.1607142-.0420141-1.7218254-.1070553-2.1099207-.5829463-2.1202381-2.3370369-.0067461-1.1614487.0420635-2.3228974.0238095-3.4843461-.0230159-1.4591836-.2325397-2.8432265-1.5301587-3.7667297-.0198413-.0141394-.0003969-.0739288-.0067461-.1547252.8726191-.5615352 1.336508-1.4204013 1.4626984-2.4618673.0698413-.5744626.093254-1.1570049.1031746-1.7367193.0198413-1.201039-.0011904-2.4032899.0309524-3.6035209.0226191-.8435148.5515873-1.4583756 1.2265873-1.5965375.6396826-.1312942.9706349-.1272544 2.1611111-.1882557v.8305873c0 4.1650561-.1456349 8.3297082-.1242063 12.4947643.0075397 1.4264611.1626984 2.832723 1.6646825 3.4487958.8166667.3349012 1.6916667.4379167 2.6297619.6633387.1567461-.9340068.2079365-1.7088446.3361111-2.4756027-1.7289682-.5049777-2.0007936-.7667582-2.0007936-2.5410478zm10.5849206-8.0364172c-2.9126984-1.4179774-6.447619-.1781561-7.8039682 2.7959606-1.0214286 2.2396771-.9849207 4.5447993-.0857143 6.815987.4876984 1.2313377 1.3690476 2.153225 2.5686508 2.695369 2.3428571 1.0588373 4.7138889.8015006 7.0761905.0581735.1273809-.0403983.2900793-.2900592.2746031-.4225654-.0805555-.6710144-.2142857-1.335565-.3337301-2.0283944-.5623016.1442216-1.0321429.2916751-1.5123016.383379-1.2686508.2427933-2.5400794.2423893-3.7746032-.2573366-1.2190476-.4928582-2.0376984-1.9108356-1.834127-3.1227821h8.2825397c.1011905-1.2119465.0611111-2.8783729-.4456349-4.2563561-.452381-1.2317416-1.2333333-2.0873759-2.4119048-2.6614345zm-.0174603 4.8982837h-5.4428571c.0027777-1.6159286 1.2952381-3.0662246 2.990873-3.0330981 1.4892857.0290868 2.5194444 1.4171695 2.4519841 3.0330981zm22.2650794 4.960497c.1952381-2.0417258-.4103175-3.1906511-2.1960318-4.0777959-.6333333-.3147021-1.3055555-.5477999-1.9507936-.839475-.4829365-.2181503-.9690476-.4391286-1.4206349-.7154524-.4396826-.2686481-.6238096-.7146444-.5587302-1.2369934.0638889-.5158852.3896825-.8560382.8603175-.9529939.5702381-.1179628 1.1678571-.2189583 1.7412698-.1712884.8103175.067465 1.6095238.2787477 2.4456349.4342808l.5285714-2.3503682c-1.1313492-.1753283-2.1861111-.4019623-3.2519841-.4876065-1.1853174-.0949358-2.3396825.1054393-3.4246032.6746502-2.2924603 1.2026549-2.3345238 4.8946479-.2277777 6.1065944.629365.361968 1.3027777.6447555 1.9575396.9614775.6892858.3340933 1.4035715.6245565 2.0630953 1.0115714.5007936.293695.6797619.8063484.5456349 1.403838-.1242063.5554755-.5373016.8031165-1.022619.8503825-.7380953.0715048-1.4952381.1401818-2.2257937.0517097-.8797619-.1066513-1.740873-.3785313-2.6420635-.5861781l-.4595238 2.3390567c2.1162698.8087723 4.2103175.9412784 6.3246032.4641755 1.7694444-.3991344 2.7773809-1.4527199 2.9138889-2.8795849zm-11.2757937-3.8184394c-.7773809-.4197375-1.613492-.7259559-2.415873-1.1000434-.4980159-.2322898-1.0253968-.4338769-1.4642857-.7558507-.8440476-.6193046-.6869048-1.8066082.2960317-2.1241382.5638889-.1825999 1.2015873-.2391574 1.7940477-.1939114.8071428.0618093 1.6035714.2743039 2.4452381.429433l.4992063-2.2404851c-.427381-.1183667-.8142857-.247237-1.2107143-.3320733-1.5757936-.3377291-3.1599206-.4686193-4.7119047.0868562-1.3333334.4775069-2.2583334 1.3703075-2.4412699 2.8723132-.2047619 1.6773339.3416667 3.0015874 1.8634921 3.7982403.609127.3191459 1.2619047.5506277 1.8837301.8463426.620635.294907 1.2543651.5764826 1.8309524.9465302.440873.2827875.6146826.7615064.4904762 1.314962-.1234127.5486077-.5162698.8249315-1.0051587.8762373-.7380953.0771606-1.4956349.1486654-2.2265873.0618092-.8833334-.1050353-1.7472222-.3777233-2.6642857-.587794-.1353175.6516232-.2940477 1.3080942-.3928572 1.9734529-.0214286.1446256.1369048.4225653.2702381.4698312 2.1365079.7538307 4.3111111.862098 6.484127.2104747 1.297619-.3886308 2.2051587-1.2325496 2.3880952-2.6755738.2075397-1.6381477-.1761904-3.0476415-1.7126984-3.8766129z" fill="#717982"/></g><g transform="translate(168 -16)"><path d="m0 0h73v73h-73z" fill="#d8d8d8" fill-rule="nonzero" opacity="0"/><path d="m47.9733564 47.2451492c-.1836379.106494-.3845842.1827437-.5732879.2815701-.1726618.090307-.2296529-.0008519-.2347187-.1507955-.0033773-.1018082.0113982-.2083022.0392605-.3071287.3516559-1.2515175.9988211-2.3198654 1.961759-3.1888564.0143533-.0123533.0346168-.018317.067545-.0349301.4584614 1.2924113-.0709222 2.7121893-1.2605579 3.4001406zm-8.3177401 2.0642798c.8683749-1.0227684 1.7342169-2.043407 2.6042805-3.0683053.1084941 1.1394859-1.8110494 3.4141978-2.6042805 3.0683053zm-7.2454638-9.3152436c-.0996289.6065899-.2237427 1.2136057-.3989375 1.8018786-.6074825 2.0348874-1.3867825 4.0067304-2.2298281 5.9517369-.1557756.3599497-.3824734.6883772-.5796202 1.029584-.0303953.0528211-.0755659.0988265-.1194702.142276-.2440062.2436583-.4757698.230453-.5990394-.087751-.143533-.3697472-.2317636-.7654789-.3077517-1.1569509-.0506587-.2628272-.0388384-.5384337-.0548803-.8080765.0164641-1.9143362.59524-3.6540223 1.5775971-5.2735831.4048476-.6679304.8455785-1.3039126 1.5184952-1.7269068.2072786-.1294967.4390422-.2338608.673761-.300739.3588326-.1018083.5791981.0656003.5196741.4285318zm-10.6210234 8.2549893c-.1410001 1.899427-.9937553 3.4393303-2.3881366 4.6865881-.7843659.7011565-1.6839804 1.2004004-2.7317717 1.3759026-.3799404.0638964-.7687461.0788055-1.1372883-.0800835-.5255842-.2266193-.6433658-.6973228-.6534975-1.1986966-.0156198-.799131.2617367-1.5220123.6425215-2.2091116.4964554-.8966795 1.2242524-1.5795191 2.0010195-2.2176311 1.2246746-1.0057294 2.5527775-1.8568295 3.912542-2.6602203.0227965-.0132052.0489701-.0204468.1030061-.0425976.2102337.7837959.3098625 1.5577943.251605 2.34585zm-11.7891291-14.5696578c0 .2998872.0873863.49754.1363564.6892292.3191499 1.2493877 1.0051535 2.3215693 1.8190703 3.2996103 1.1592404 1.3942195 2.5789511 2.5158143 4.0332786 3.5709569 1.2614022.9149965 2.5485559 1.8095461 3.815024 2.717727.2169882.1559072.4230003.3352431.6589856.5265064-.2034792.1107537-.3723417.2083022-.5479586.2981832-1.6713156.8553598-3.2788858 1.8142318-4.7614977 2.9762944-.8932822.6998786-1.7570134 1.4440587-2.3670289 2.4169879-.9819349 1.563758-1.3293693 3.2306022-.5973507 5.009478.2131888.5196908.5395154.9690955.9992433 1.3005048.1485989.107346.3161948.21384.4901231.2555856.4466411.106068.9021474.1755021 1.3538544.2594194.4267997-.000426.8535995-.000852 1.2803992-.000852 1.4159113-.1273668 2.7047536-.6168132 3.86906-1.4278716 1.8203367-1.2672786 3.0467-2.9669229 3.5739728-5.1487721.3833177-1.5850567.3993596-3.1726694-.0527695-4.7509105-.0417934-.1461098-.0945629-.2896637-.1498654-.4319397-.0544581-.141424-.119048-.2798662-.1954582-.4566463.9667373-.5610104 1.9347411-1.1228728 2.9027448-1.6843092.0143533.0127793.0287066.0247067.0434821.0374859-.0527695.1742242-.1089163.3480224-.1566199.5239505-.3449015 1.2715384-.5741322 2.5643757-.4918118 3.8840494.0878085 1.4057208.4766142 2.7211348 1.2922196 3.8959766.6589856.9503525 2.2306724.9857085 2.9314514.0319482.2486499-.3382249.489701-.692637.670806-1.0700517.4732369-.9865605.9114348-1.989734 1.3635639-2.9865179.0194192-.0430236.0371497-.0860472.078521-.1823177-.032506.4724074-.0705.8864561-.0878084 1.3013567-.0274402.6479095.0105539 1.2919853.230075 1.9083726.1878594.5277842.5070094.9218121 1.1060488.9912462.4094913.0472833.7358179-.1418501 1.036393-.3816746.470704-.3744329.852333-.8370428 1.1360219-1.3626972.8025186-1.4870823 1.6265671-2.9652191 2.353942-4.4897873.7873209-1.6489531 1.4754353-3.3464676 2.2057652-5.0231092.040527-.0920108.0759881-.1865775.1207366-.2977572.1726618.6849694.2933984 1.3550297.5146082 1.989734.2575152.7369385.576243 1.45556.9228331 2.1545867.1642187.3305574.1452216.5443973-.0823205.8212817-.9523839 1.1586548-1.8883038 2.3313668-2.8250681 3.5028008-.2072786.2585675-.414135.5213947-.5863747.8038168-.1042725.1720943-.1735061.3808225-.2026349.5810313-.0561467.3829524.1777277.7514217.5834197.8395987.3706529.0809354.7653688.1103278 1.1431985.0826393 1.3074172-.0971225 2.4949421-.5605844 3.5439998-1.3452322 1.3597645-1.0159528 1.7962738-2.4029307 1.4669922-4.0471982-.089075-.4459969-.2465392-.8796404-.400204-1.3094502-.0688114-.1938191-.0734551-.3297055.0519252-.5103193 1.0874739-1.5663138 2.0162172-3.2280463 2.8799484-4.9281166.0341947-.0673042.0692336-.1341824.1287576-.2057464.2798894 1.4696173.7012012 2.8859875 1.4564383 4.1711572-.3854285.3744329-.7666354.7139358-1.1111147 1.0879427-.7594587.8234117-1.4184442 1.7183873-1.7616571 2.8093119-.1477546.4698515-.2613145.9477966-.1954582 1.4504483.1021618.7799621.7353958 1.2864476 1.4956988 1.1092416 1.6269893-.3795447 3.0315024-1.1535431 4.0577637-2.5239079.6906472-.9226641.7535485-1.9518222.4643716-3.0299675-.0793653-.2926455-.1735061-.5814572-.2752457-.9175523.4018925-.1256629.792809-.2768844 1.1976566-.3697472 2.102337-.4839087 4.1814554-.3995655 6.20696.3663394 1.1820369.4472748 2.1377981 1.1957147 2.7043315 2.3731124.6914916 1.439373.3094404 2.8050521-1.0351266 3.7149368-.1253803.0847693-.2689134.1520735-.3727637.2581415-.0641678.0651743-.1021618.195523-.086542.284978.0088653.052395.1456438.1184213.2250091.1175693.4419974-.0034078.7999857-.2372686 1.144465-.4775191.8620426-.6019041 1.4910551-1.4121105 1.626145-2.4783284.0033773-.0302443.0033773-.0302443.027018-.0796576 0-.2364166-.032506-.4583502-.032506-.6947668-.0130869-.0396158.0097096-.0792316.0063323-.1099019-.1827935-1.5522566-1.0047313-2.7564908-2.2006993-3.7008796-1.3846718-1.0930545-3.019682-1.5424592-4.7488331-1.6135972-1.4087347-.0579327-2.7942507.1533514-4.1219314.640242-.3790961.1384422-.7539707.302443-1.1351776.4570723-.0510808-.0932888-.1059611-.1827437-.1511318-.2756065-.3909165-.8076505-.8645756-1.5795191-.9692702-2.505165-.0742995-.6581329-.1654852-1.3149879-.0105539-1.9654533.1485989-.6257588.3432128-1.2404422.5260064-1.8581074.0937186-.3177781.0278623-.4958361-.2727128-.63939-.1046947-.0498392-.2182547-.0932888-.3318147-.1094758-.738773-.1086239-1.4669921-.0464314-2.1829688.1631488-.2528714.0745458-.4373536.2176737-.4935004.5005218-.0320838.1622969-.097518.3177781-.1431108.4779451-.1870152.6658005-.31915 1.3443803-.6214137 1.9786586-.7573479 1.5910204-1.6219234 3.1215522-2.5071846 4.6418606-.0954073.1640008-.1967247.3245938-.3174614.5239505-.3107068-.656003-.6420993-1.2447019-.7421502-1.934783-.11356-.7803881-.2034792-1.5594982-.0109761-2.3339226.1431109-.5776235.330126-1.1445976.5027878-1.7149795.0814761-.2709207.0434821-.4131967-.1992576-.5558987-.1228474-.0719899-.2617368-.1358863-.4002039-.1567591-.7666354-.1141616-1.5210282-.054525-2.2602234.1870034-.2292307.0745458-.3495452.2244894-.4196231.463036-.2060121.7037123-.381629 1.4244638-.6708059 2.0936721-1.1710608 2.7092075-2.3758941 5.4039317-3.5790387 8.099082-.2511829.5627143-.5458478 1.1054078-.8286923 1.6532129-.0721887.1392942-.1764612.2615493-.2659583.391472-.0721887-.0856212-.0996288-.1439799-.0992067-.2027646.0021108-.3467445-.0388383-.7032864.0265959-1.0376776.1979911-1.0129709.4259554-2.0204042.6661622-3.0235777.1984133-.8293754.4293326-1.6502311.6492759-2.4736428.0738773-.2756065.0751438-.533322-.1211588-.7650529-.3297038-.3880642-1.0186624-.4732594-1.4273095-.1742242-.0447485.0319482-.0958294.0549509-.1811049.1030862.0156198-.1316266.0240629-.212988.035039-.2939235.0861198-.6304445.1034282-1.2579071-.0679672-1.8789802-.2136109-.7735724-.7607251-1.2182914-1.5560671-1.1935848-.370653.0115014-.7594587.0753978-1.1030937.2117101-1.4433514.5708079-2.5531996 1.581649-3.4979848 2.7978105-.0852755.1103278-.1984133.2108581-.3195721.2790143-1.2212973.6828395-2.4463941 1.3580115-3.6710687 2.0353134-.457195.2530298-.9148121.5052076-1.3631418.7531256-.3655871-.3518562-.6978239-.7164917-1.0752314-1.0266022-1.1507973-.9469447-2.3205917-1.8708867-3.4802543-2.8080339-1.0271056-.8302273-2.0229716-1.6945326-2.7845411-2.7944027-.5665334-.8178739-.9312762-1.7128496-.9663151-2.7236906-.0447486-1.2885775.3178835-2.4659752.9680037-3.5620115.8316474-1.4023131 1.9659806-2.5277417 3.2130295-3.5471023 1.3192376-1.0777193 2.7461249-1.9927158 4.2253596-2.8280548 2.0689867-1.1684522 4.1966531-2.202722 6.4788285-2.8855615 2.3395887-.7003046 4.7129499-1.101574 7.1618769-.8217078.9625158.1099018 1.8971692.3322613 2.7554124.8067986.6572969.3633576 1.1963902.8391728 1.4471508 1.5829269.2473835.7318268.2397847 1.473451.0683893 2.2167792-.3482787 1.5049733-1.1651506 2.7462674-2.1935227 3.854657-1.685669 1.8176396-3.7424131 3.0555259-6.058361 3.8725479-1.3357017.4715555-2.7102417.7676088-4.1219315.8873081-1.1520637.0971225-2.2800646-.0055377-3.3709158-.4102149-.7223089-.2679389-1.3513214-.6777279-1.8574865-1.2723904-.0903414-.106494-.20559-.2219335-.3740302-.1218291-.165063.0979745-.194614.2564375-.1388894.4166045.0920301.267087.1777277.5443974.3216829.7829439.3617877.5984964.8894828 1.0325659 1.4703695 1.404869 1.1157583.7160656 2.3623851.9567421 3.655449 1.0129709 1.9626033.0851952 3.8766587-.2104321 5.7641183-.7411982 2.6946219-.7582374 5.0375878-2.097506 6.9166043-4.210347 1.5645102-1.759281 2.6819572-3.7451812 2.9213196-6.1425742.1169373-1.1701561-.0075988-2.3164576-.5504914-3.3839535-.5884855-1.1565248-1.5252497-2.0165704-2.6443853-2.6091031-1.6274115-.8613235-3.3865357-1.3635492-5.203073-1.3635492h-1.8190703c-2.1998551 0-4.3258328.6359822-6.3927087 1.3950715-1.564088.5742156-3.0986252 1.2523694-4.5875695 2.0033652-3.2438468 1.6348959-6.2643732 3.6067389-8.7453841 6.3180763-1.2360729 1.3507699-2.2825976 2.84126-2.8845921 4.5962812-.1760391.5137271-.3432129 1.0645141-.4694375 1.5957062z" fill="#717982"/></g><g fill-rule="nonzero" transform="translate(261 -16)"><path d="m0 0h73v73h-73z" fill="#d8d8d8" opacity="0"/><path d="m33.2534695 37h7.8321866l-4.1633724-8.6292279zm3.682608-21-19.9360775 6.9542033 3.1500328 25.8896847 16.8072401 9.156112 16.8937036-9.2798298 3.1490235-25.8890177zm-5.3042206 24.6681805-2.4441939 6.0611681-4.569112.0186744 12.3161808-27.0374917-.0235504-.051021h-.0215318l.0003364-.0443517.0211954.0443517h.0474372l.0413814-.0913711v.0913711h-.0417178l-.023214.051021 12.8480832 27.1502049-4.3985399-.0957062-2.7056033-6.1958904-5.7775834.0273447z" fill="#717982"/></g><g fill-rule="nonzero" transform="translate(354 -16)"><path d="m0 0h73v73h-73z" fill="#d8d8d8" opacity="0"/><path d="m52.5859478 25.8631232-14.4391641-8.4701329c-.9096644-.5239871-2.1012888-.5239871-3.0181494 0l-14.5520135 8.4701329c-.9384492.5461508-1.5766208 1.572623-1.5766208 2.6705481v16.9177714c0 1.0979251.6515827 2.1247281 1.590359 2.6738561l3.8365529 2.2123901c1.8405903.9169774 2.3505388.9169774 3.1879141.9169774 2.7260493 0 4.141737-1.6669009 4.141737-4.5743018v-16.7020898c.0003271-.2358604.1458865-.5868391-.0834104-.5868391h-1.8389548c-.232895 0-.6941057.3509787-.6941057.5865083v16.7020898c0 1.2887967-1.1827926 2.5713081-3.3370716 1.4819838l-3.9651031-2.3199c-.1380361-.076084-.2211194-.2292444-.2211194-.3906748v-16.9177714c0-.1594456.1514472-.3195528.2914458-.4012603l14.5160326-8.4555777c.1357464-.077738.327754-.077738.4628462 0l14.3802861 8.4535929c.137709.0836923.1157933.2388375.1157933.4032451v16.9177714c0 .1614304.0300932.3185604-.1056532.3962983l-14.4358931 8.4605397c-.1236437.0750916-.2845768.0750916-.4203232 0l-3.7017878-2.2325689c-.111541-.0654984-.245979-.0889851-.3532677-.0284488-1.0287288.5898164-1.219755.668216-2.1846993 1.0066243-.2378015.0836924-.5884524.2289136.1334567.6381131l4.8404221 2.8958229c.4631732.2712559.9901309.4121767 1.5200325.4121767.5370978 0 1.0627471-.1409208 1.5262474-.4121767l14.3845385-8.4625245c.9391034-.5530976 1.4137251-1.575931 1.4137251-2.6738561v-16.9177714c-.0003271-1.0979251-.4749488-2.1217509-1.4140522-2.6705481zm-11.4324633 16.9075166c-3.8358987 0-4.6804702-1.0701378-4.9621031-2.9990324-.0333642-.2077423-.2073813-.4561731-.4167251-.4561731h-1.8742815c-.2319138 0-.4186877.284488-.4186877.5180327 0 2.4697525 1.328025 5.4621689 7.6717974 5.4621689 4.5918263 0 7.2249793-1.8045137 7.2249793-4.9980565 0-3.1664172-2.1153541-3.9973867-6.5688172-4.5934882-4.5015467-.6017252-4.9588321-.9057303-4.9588321-1.9722294 0-.8792663.3872861-2.0519521 3.7204325-2.0519521 2.9779161 0 4.0756628.6463831 4.5273876 2.6765024.0389249.1908716.2113064.3278228.4059308.3278228h1.8821319c.1157933 0 .2260259-.0473044.3071467-.1309968.078831-.0899776.1200456-.2027804.1099055-.3238531-.2921001-3.4962248-2.5883403-5.1254146-7.2328296-5.1254146-4.131924 0-6.5962935 1.764487-6.5962935 4.7221694 0 3.208098 2.4522668 4.0946419 6.4183512 4.491271 4.7445819.4703976 5.1135504 1.1716935 5.1135504 2.1154658 0 1.6394445-1.3012028 2.3377632-4.3530435 2.3377632z" fill="#717982"/></g><g fill-rule="nonzero" transform="translate(448 -16)"><path d="m0 0h73v73h-73z" fill="#d8d8d8" opacity="0"/><path d="m32.1516475 36.3461495h9.6366301c2.6825517 0 4.7956768-2.244981 4.7956768-4.9093433v-9.0864856c0-2.586239-2.1917806-4.5291871-4.8102182-4.9606628-1.6570548-.272941-3.3693008-.3971537-5.019085-.3893087-1.6491232.0075181-3.1766278.1464402-4.5623539.3893087-4.0831498.7129155-4.7765087 2.2067366-4.7765087 4.9606628v3.5358125h9.5840829v1.307502h-13.2934534c-2.80384 0-5.2593481 1.6696801-6.0270662 4.8413533-.8860319 3.6348557-.9253597 5.8572823 0 9.6526339.6857577 2.8248582 2.3233139 4.7916681 5.1274843 4.7916681h3.28701v-4.2650717c0-3.1500993 2.7853328-5.8680692 6.0578013-5.8680692zm-.6074325-12.7841013c-1.0000495 0-1.8104002-.8103244-1.8104002-1.8125248 0-1.0064497.8100202-1.8242922 1.8104002-1.8242922.9964141 0 1.8107306.8178425 1.8107306 1.8242922-.0003304 1.0022004-.814647 1.8125248-1.8107306 1.8125248zm24.7166887 8.4729402c-.6933588-2.7614444-2.0169537-4.8413533-4.8247595-4.8413533h-3.5302474v4.2431711c0 3.2850989-2.9062905 5.8899698-6.1176192 5.8899698h-9.6366301c-2.6399191 0-4.7358589 2.3946901-4.7358589 5.0096942v9.0871393c0 2.5855853 2.2291255 4.1068639 4.779483 4.8488713 3.0543481.8881208 5.9467582 1.0486167 9.6009377 0 2.4287388-.6959179 4.7877451-2.0955989 4.7877451-4.8488713v-3.636817h-9.5840829v-1.3075021h14.4362727c2.80384 0 3.849166-1.8880329 4.8247595-4.791995 1.0069897-2.9892766.9636961-5.8180573 0-9.652307zm-13.865524 18.1762398c1.0003799 0 1.8107307.8103244 1.8107307 1.8131784 0 1.0054691-.8100203 1.8236385-1.8107307 1.8236385-.9964142 0-1.8104002-.8178425-1.8104002-1.8236385 0-1.002854.813986-1.8131784 1.8104002-1.8131784z" fill="#717982"/></g><g transform="translate(-19 87)"><path d="m0 0h73v73h-73z" fill="#d8d8d8" fill-rule="nonzero" opacity="0"/><path d="m46.9161485 33.9572294c-.1384972-1.8130205-.5599778-3.5613172-1.1461578-5.2740349-1.2142834-3.8243754-3.1629762-7.2089326-5.9078407-10.1211203-.6939831-.7365632-1.4658242-1.4114307-1.9498157-2.3281605-.3061911-.5798637-.5977838-1.167676-.8961142-1.7520818l-.18903-.4818319c-.0318169.1105223-.05203.1498864-.0531529.1896291-.0243306.9526873-.5581063 1.5987888-1.2228928 2.2017411-.7475104.6786525-1.4433652 1.4152157-2.161679 2.1264194-.7366553.9795609-1.4729362 1.9591218-2.2088429 2.9383043-.5959122 1.1071158-1.1910758 2.2142316-1.7862394 3.3213474l-1.1940703 3.2615443-.0359344.0507192c-.6573001 2.1831945-.9814584 4.4277063-1.1409173 6.6949281-.0598907.852006.0082349 1.7165026.0557732 2.5730507.0677513 1.2244511.2781173 2.4280848.5936663 3.6127933 1.1461577 4.3043149 3.4721618 7.8747161 6.6519823 10.9080242.5910461.5635882 1.1974392 1.0760788 1.8143131 1.6124149.1055573-.3652536.1897786-.7305072.2856037-1.0957608.095825-.3637396.1927731-.7255867.2575299-1.0904618-.0651312.3648751-.1381229.7267222-.210366 1.0904618l-.3091856 1.0957608.2762457.9466313.2560326 1.4700984.1220273 1.5340651c-.001123.3115065-.0134754.6237699.0052404.9348978.0044918.0794853.1078032.1529145.165448.2293717l.5150598.1828161.5367702.2112036-.0920819-1.3637396-.0041175-1.342922.1852867-2.0457987.1343797-.4454958.3844233-.6888721c.4746336-.3860711.9840786-.7365632 1.4164145-1.166162.7823219-.7774413 1.5627722-1.5647237 2.2627445-2.4159727.9084667-1.1040878 1.69004-2.3092354 2.3173948-3.6018168.4199833-.8644966.8152618-1.7464043 1.1424146-2.6498865.2882238-.7963664.4667729-1.6332324.6939832-2.4523088.0202131-.0590462.0471639-.1169569.0598906-.1771386.4693932-2.2108251.548374-4.4439818.375814-6.692657zm-8.8335001 18.6884935-.301325-.6672975.301325.6672975.4428167.3822862z" fill="#717982"/></g><g fill-rule="nonzero"><g transform="translate(74 87)"><path d="m0 0h73v73h-73z" fill="#d8d8d8" opacity="0"/><path d="m57.4931227 56.0292752-.8712163-.8428229c-.8255906-1.0936434-1.8876352-2.0544018-3.0022991-2.8520439-.888867-.636519-2.8844051-1.4962848-3.2554047-2.5278044l-.0682719-.0647815c.6304328-.0710934 1.3664374-.2983267 1.9482473-.4541344.977121-.261119 1.7837287-.1936798 2.7928209-.45347.4549241-.1295628.9654648-.2594579 1.2984985-.3890207v-.2591257c-.3330337-.5219058-.8082729-1.2129077-1.3644392-1.6853138-1.4550244-1.2358303-3.010958-2.4706639-4.6461536-3.5005225-.9068508-.570741-2.0118568-.9418223-2.9726591-1.4258558-.3233757-.1631163-.8832054-.2478305-1.0970131-.5189158-.5052122-.6418345-.7753025-1.455755-1.164952-2.2035652-.8155996-1.5670461-1.6148805-3.2782724-2.3375637-4.9270427-.49289-1.1242069-.8136014-2.2324676-1.4283817-3.2410646-2.9506789-4.8393387-6.1261555-7.7598183-11.0457298-10.6307982-1.0473911-.6106065-2.3075907-.8514605-3.6397256-1.1670623-.7140244-.0428554-1.4290478-.0863752-2.1437382-.1298951-.4366072-.181388-.8905322-.7139245-1.2994976-.9723858-1.6305331-1.0272009-5.8111056-3.2613296-7.0183529-.3239071-.7623142 1.8540776 1.1389754 3.6626422 1.8190303 4.6024712.4779034.658445 1.0890203 1.3976177 1.4297138 2.1387837.2247978.4873556.2630966.9760401.4552571 1.4913016.4722418 1.269716.8828724 2.6510553 1.4943224 3.8240975.3087222.5939958.6490827 1.2192196 1.0397313 1.7500951.2391182.3259004.6494157.4694162.7143573.9723858-.4009726.5601102-.4239519 1.4298424-.6494158 2.1394482-1.0157528 3.1942226-.632098 7.1648257.8449066 9.5288495.4529259.7262164 1.520632 2.2826317 2.9889778 1.6853137 1.284178-.5215735 1.0743668-2.1387837 1.441703-3.5653039.0829254-.3229105-.0616113-.5607746.2714225-.7777094v.0647815c.3330337.7777093.7027012 1.5557508 1.0930167 2.3334602.8658877 1.3909735 2.2942694 2.8444029 3.5960982 3.825094.6750594.5086173 1.3054923 1.3876514 1.9715597 1.6853138v-.0335535h.0736005c-.1688481-.3322124-.4336099-.3876919-.6494158-.5993112-.5085425-.4969898-1.0743668-1.1235425-1.4943224-1.6932869-1.1842679-1.6035894-2.2306599-3.3626543-3.1841355-5.1898227-.4555901-.8723899-.8515672-1.8368026-1.2352221-2.7244743-.1475339-.3421788-.1458688-.8610947-.454258-1.0381639-.4206216.650472-1.0397313 1.1760321-1.3651053 1.9444394-.5198656 1.2278572-.5868054 2.7254709-.7796319 4.2778997-.1142306.0405299-.0632764.0126241-.1302162.0644492-.9051857-.2175992-1.2228999-1.1467974-1.559597-1.9444394-.8509012-2.0165296-1.0087592-5.2632418-.2600993-7.5840779.1938256-.6009723 1.0693713-2.4919255.7146904-3.0470525-.1691812-.5531338-.7273457-.8737188-1.0393983-1.2966252-.3866522-.5229024-.7723052-1.2112466-1.0400644-1.8152088-.6963735-1.5716971-1.0210814-3.3367418-1.7544217-4.9260461-.3506845-.7597699-.9431515-1.5288417-1.4297138-2.2038974-.5385155-.7484746-1.1419726-1.299615-1.55993-2.2042295-.1482-.3215817-.3500184-.836511-.1298831-1.1670623.0699371-.2229146.1688481-.3159341.3899825-.3886886.3773272-.2900215 1.4263835.0963416 1.8193633.2587935 1.0420625.4318762 1.9119466.8305311 2.794819 1.4138962.4232859.2803873.8522334.6278815 1.3644392.9600939h.5848073c.9148436 0 1.9395884.0770733 2.794486.336199 1.510308.458121 2.8640901 1.1766965 4.0936506 1.9510837 3.7452974 2.3593728 6.8075425 5.7206983 8.9026578 9.7265159.3370301.6451566.4828989 1.2620751.7796319 1.9461005.5987947 1.3796783 1.3534491 2.7998865 1.9492465 4.1490012.5947982 1.346457 1.1742769 2.7048737 2.014854 3.8250941.4419358.5886804 2.1484006.9049467 2.9240362 1.2321759.5438441.2288944 1.4347093.4680874 1.9495795.7773772.9834486.5920025 1.9362581 1.2969573 2.8594276 1.9451038.4609187.3235749 1.8783102 1.0345096 1.9492464 1.6205323-2.2856105-.0624559-4.0310403.15016-5.5233644.7777093-.423952.1783981-1.1006765.1833813-1.1699475.7132602.2331236.2435117.2694243.6076165.454591.9072721.3560131.5747276.957805 1.3461249 1.4946554 1.7500952.5868054.4418425 1.1909286.9139164 1.8196963 1.296293 1.1186603.6800388 2.3668707 1.0687274 3.4439018 1.7500951.6347623.4019771 1.3181475.9079366 1.9365912 1.3610744.306391.2242434.296733.5727342.9628005.7132601v-.0644492c-.3327007-.2641089-.3150499-.6288782-.5068773-.9062756zm-31.958916-32.9946754c-.4765713-.0089698-.8372468.0521573-1.1702806.1292306v.048503h.0659407c.227462.3322125.6287677.774055.9095151 1.1753677l.6500819 1.3647287.0642755-.0621237c.4026378-.2833773.5871385-.7345218.5848072-1.4255236-.1608553-.1690962-.1851667-.3807155-.3243748-.5827007-.1858329-.2687598-.5458423-.4212453-.779965-.647482z" fill="#717982"/></g><g><path d="m168 87h73v73h-73z" fill="#d8d8d8" opacity="0"/><g fill="#717982" transform="translate(188 104)"><path d="m27.5605562 21.2508243c.0567628 6.0530817 5.3807236 8.0676632 5.4394438 8.093421-.0450188.1416678-.8504636 2.8707061-2.8045399 5.6889308-1.6891832 2.4366874-3.4426323 4.8643595-6.2041108 4.9152311-2.7135236.0489398-3.5861704-1.5886119-6.6888782-1.5886119-3.1017292 0-4.070938 1.5377403-6.6399448 1.6375517-2.6658951.0998115-4.69598139-2.6353443-6.39919215-5.0626944-3.48014793-4.9661028-6.13984479-14.0331684-2.56868061-20.1535423 1.77400116-3.0394197 4.94488961-4.96384895 8.38621696-5.0134327 2.6176141-.04926179 5.0884278 1.7380072 6.6885521 1.7380072 1.5991456 0 4.6017029-2.14948797 7.7582375-1.83395499 1.3215297.05441334 5.0306863.52674689 7.4124411 3.96798819-.191493.11752-4.4255425 2.5503436-4.379545 7.6111063"/><path d="m22.4607106 6.38664511c1.4151558-1.69067723 2.3677272-4.04493963 2.1080536-6.38664511-2.0401992.08081508-4.5070982 1.34165911-5.9702088 3.0316924-1.3114168 1.49620588-2.4597221 3.89168075-2.1501364 6.1870222 2.2741012.17386511 4.5968096-1.14042634 6.0122916-2.83206949"/></g></g><g><path d="m261 87h73v73h-73z" fill="#d8d8d8" opacity="0"/><g fill="#717982" transform="translate(281 104)"><path d="m2.47870227 12.9379405c-1.36887591-.0006727-2.47836453 1.1068871-2.47870227 2.4690543l.00168872 10.3376724c.00033774 1.366876 1.11050185 2.4700634 2.4797155 2.469727 1.36988914 0 2.4797155-1.1031873 2.47836452-2.4693906v-10.3393541c-.00067548-1.361831-1.11151507-2.4683817-2.48106647-2.467709z"/><path d="m22.4707752 3.65435014c3.3960146 1.75097353 5.689971 5.07062563 5.6892955 8.88839366l-22.33094923.0026907c-.00202646-3.81911338 2.29598283-7.14549223 5.69706363-8.89209337l-1.73093735-3.14442021c-.09355506-.16413275-.03174793-.37367107.13644852-.46414588.16515673-.09114749.37455793-.03060672.46541103.13655306l1.749851 3.17132721c1.4644574-.64812255 3.1096078-1.01237617 4.8462868-1.01069448 1.7414074-.00168169 3.3872333.36358094 4.8577701 1.01540321l1.7478246-3.17939931c.0895021-.1654781.29789-.22601887.466762-.13688941.1671832.09316552.2276393.3023675.1354353.46683659zm-10.5565224 4.86243265c.5184368-.00033633.9382525-.41806763.9382525-.93199148-.0006755-.51224216-.4194779-.93333683-.9372393-.9330005-.5160726-.00033633-.9341995.42075834-.9341995.9330005 0 .51459653.4194779.93098247.9331863.93199148zm10.168117-.00168168c.5160726.00033633.9358882-.41705863.934875-.93165515.0003377-.51156949-.4208289-.9330005-.9345373-.93468219-.5170859.00201803-.9345373.4231127-.9365637.93434585 0 .51594188.4201533.93266416.936226.93199149z"/><path d="m5.92031231 13.4044408.00371519 16.0214415c-.00101324 1.4573508 1.18277903 2.6338597 2.64520999 2.6338597l1.80118811.0006727.0020264 5.4701947c-.0003377 1.3621672 1.1115151 2.4693906 2.4773513 2.4693906 1.3698892 0 2.4797155-1.1082324 2.4800533-2.4710723l-.001351-5.4688494 3.346704-.001009.001351 5.4698584c0 1.3611582 1.1121905 2.470736 2.4783645 2.4680453 1.3698891.001009 2.480391-1.1072234 2.4800532-2.4700634l-.0016887-5.468513 1.8076052-.0013453c1.4590535.0006727 2.6458855-1.1771816 2.646561-2.6348688l-.0030397-16.0214414z"/><path d="m33.9983113 15.4032951c-.0003378-1.3638489-1.1098264-2.4690543-2.4793778-2.4683816-1.3688759-.0013454-2.4780268 1.1055417-2.4780268 2.4693906l.0020265 10.3383451c-.0003377 1.364858 1.1088131 2.4680453 2.4787023 2.4683816 1.3692136-.0003363 2.4780268-1.1035236 2.4783645-2.4697269z"/></g></g><path d="m354 87h73v73h-73z" fill="#d8d8d8" opacity="0"/></g><g fill="#717982" transform="translate(367 103)"><path d="m47.2187643 21c0-3.1235698-3.9116705-6.0837529-9.9089245-7.9194508 1.3839817-6.11258581.7688787-10.97574371-1.9414187-12.53272311-.624714-.36521739-1.3551488-.53821511-2.1528605-.53821511v2.14324943c.4421053 0 .7977117.08649886 1.0956522.24988559 1.3070938.74965675 1.8741419 3.60411899 1.4320366 7.27551487-.1057208.90343253-.2787185 1.85491993-.4901602 2.82562933-1.8837528-.4613273-3.9405034-.8169337-6.1029748-1.0475973-1.2974828-1.77803203-2.6430206-3.39267734-3.9981693-4.80549198 3.1331808-2.91212815 6.0741419-4.50755149 8.0732265-4.50755149v-2.14324943c-2.6430206 0-6.1029748 1.88375286-9.601373 5.15148741-3.4983981-3.24851258-6.9583524-5.11304347-9.601373-5.11304347v2.14324942c1.9894737 0 4.9400458 1.58581236 8.0732266 4.47871854-1.3455378 1.41281464-2.6910755 3.01784897-3.9693364 4.795881-2.1720824.2306636-4.228833.58627-6.1125858 1.0572082-.2210527-.9610984-.3844394-1.8933638-.4997712-2.78718531-.4517162-3.67139588.1057208-6.52585812 1.4032037-7.28512586.2883295-.17299771.6631579-.24988558 1.1052631-.24988558v-2.14324943c-.8073226 0-1.5377574.17299771-2.1720824.5382151-2.70068645 1.55697941-3.30617844 6.41052632-1.91258576 12.50389018-5.97803204 1.8453089-9.87048055 4.795881-9.87048055 7.9098398 0 3.1235698 3.91167048 6.0837529 9.90892448 7.9194508-1.38398169 6.1125858-.76887872 10.9757437 1.94141873 12.5327231.624714.3652174 1.3551488.5382151 2.1624714.5382151 2.6430206 0 6.1029749-1.8837528 9.601373-5.1514874 3.4983982 3.2485126 6.9583524 5.1130435 9.601373 5.1130435.8073227 0 1.5377575-.1729977 2.1720824-.5382151 2.7006865-1.5569794 3.3061785-6.4105263 1.9125858-12.5038902 5.9588101-1.8356979 9.8512586-4.795881 9.8512586-7.9098398zm-12.5135011-6.4105263c-.3556064 1.2398169-.7977117 2.5180778-1.2974829 3.7963387-.3940503-.7688788-.8073226-1.5377575-1.2590389-2.3066362-.4421052-.7688787-.9130435-1.5185355-1.3839817-2.2489703 1.3647598.2018307 2.6814646.4517163 3.9405035.7592678zm-4.4018307 10.2356979c-.7496568 1.2974829-1.5185355 2.5276888-2.3162471 3.6713959-1.4320367.1249428-2.8832952.1922197-4.3441648.1922197-1.4512586 0-2.9025172-.0672769-4.3249428-.1826087-.7977117-1.1437071-1.5762014-2.3643021-2.3258581-3.6521739-.7304348-1.2590389-1.3935927-2.5372998-1.9990847-3.8251716.595881-1.2878719 1.2686499-2.5757438 1.9894737-3.8347827.7496567-1.2974828 1.5185355-2.5276887 2.3162471-3.6713958 1.4320366-.1249428 2.8832952-.1922197 4.3441648-.1922197 1.4512586 0 2.9025172.0672769 4.3249428.1826087.7977117 1.1437071 1.5762014 2.364302 2.3258581 3.6521739.7304348 1.2590389 1.3935927 2.5372998 1.9990847 3.8251716-.605492 1.2878719-1.2686499 2.5757437-1.9894737 3.8347826zm3.1043478-1.2494279c.5189932 1.2878719.9610984 2.5757437 1.3263158 3.8251716-1.2590389.3075515-2.5853547.5670481-3.9597254.7688788.4709382-.7400458.9418764-1.4993136 1.3839817-2.2778033.4421053-.7688787.8553776-1.5473684 1.2494279-2.3162471zm-9.7455377 10.2549199c-.8938215-.9226544-1.7876431-1.9510297-2.6718536-3.0755149.8649886.038444 1.7491991.0672769 2.6430206.0672769.9034325 0 1.797254-.0192219 2.6718536-.0672769-.8649886 1.1244852-1.7588101 2.1528605-2.6430206 3.0755149zm-7.1505721-5.6608695c-1.3647597-.2018307-2.6814646-.4517163-3.9405035-.7592678.3556065-1.2398169.7977117-2.5180778 1.2974829-3.7963387.3940503.7688788.8073226 1.5377575 1.2590389 2.3066362.4517162.7688787.9130435 1.5185355 1.3839817 2.2489703zm7.1025171-20.00045772c.8938216.92265447 1.7876431 1.95102972 2.6718536 3.07551492-.8649886-.038444-1.7491991-.0672769-2.6430206-.0672769-.9034325 0-1.797254.0192219-2.6718536.0672769.8649886-1.1244852 1.7588101-2.15286045 2.6430206-3.07551492zm-7.1121281 5.66086952c-.4709382.7400458-.9418764 1.4993136-1.3839817 2.2778033-.4421053.7688787-.8553776 1.5377574-1.2494279 2.3066361-.5189931-1.2878718-.9610984-2.5757437-1.3263158-3.8251716 1.2590389-.2979405 2.5853547-.5574371 3.9597254-.7592678zm-8.69794051 12.032952c-3.40228833-1.4512586-5.60320366-3.3542334-5.60320366-4.8631579s2.20091533-3.4215103 5.60320366-4.8631579c.82654463-.3556064 1.72997712-.6727689 2.66224261-.9707094.547826 1.8837529 1.2686498 3.8443936 2.1624714 5.8530893-.8842106 1.9990846-1.5954234 3.9501144-2.1336385 5.8242563-.95148741-.2979405-1.8549199-.624714-2.69107551-.9803204zm5.17070941 13.7340961c-1.3070938-.7496567-1.8741419-3.604119-1.4320366-7.2755149.1057208-.9034325.2787185-1.8549199.4901601-2.8256293 1.8837529.4613273 3.9405035.8169337 6.1029749 1.0475973 1.2974828 1.778032 2.6430206 3.3926773 3.9981693 4.805492-3.1331808 2.9121281-6.0741419 4.5075515-8.0732265 4.5075515-.4324943-.009611-.7977117-.0961099-1.0860412-.2594966zm22.797254-7.3235698c.4517162 3.6713959-.1057208 6.5258581-1.4032037 7.2851259-.2883295.1729977-.6631579.2498856-1.1052631.2498856-1.9894737 0-4.9400458-1.5858124-8.0732266-4.4787186 1.3455378-1.4128146 2.6910755-3.017849 3.9693364-4.795881 2.1720824-.2306636 4.228833-.58627 6.1125858-1.0572082.2210526.9707094.3940504 1.9029748.4997712 2.7967963zm3.7002288-6.4105263c-.8265446.3556064-1.7299771.6727689-2.6622426.9707094-.547826-1.8837529-1.2686498-3.8443936-2.1624713-5.8530893.8842105-1.9990846 1.5954233-3.9501144 2.1336384-5.8242563.9514874.2979405 1.8549199.624714 2.7006865.9803204 3.4022883 1.4512586 5.6032037 3.3542334 5.6032037 4.8631579-.009611 1.5089245-2.2105264 3.4215103-5.6128147 4.8631579z" fill-rule="nonzero"/><circle cx="23.63341" cy="21" r="4.39222"/></g><g fill-rule="nonzero"><path d="m448 87h73v73h-73z" fill="#d8d8d8" opacity="0"/><path d="m37.07 2.93c1.88125 1.88125 2.8579687 4.2378125 2.929375 7.06984375v20.00015625c-.0714063 2.83125-1.0479688 5.1885937-2.929375 7.0698437-1.88125 1.88125-4.2385938 2.8579688-7.0704688 2.93h-19.99968745c-2.83203125-.071875-5.18859375-1.0485937-7.06984375-2.93-1.88125-1.8810937-2.858125-4.2384375-2.93-7.0696875v-20.0001562c.071875-2.83203125 1.04859375-5.18859375 2.93-7.06984375 1.88125-1.88140625 4.2378125-2.85828125 7.06984375-2.93015625h19.99968745c2.831875.071875 5.1892188 1.04859375 7.0704688 2.93zm-2.7585938 16.09375c-.6285937-.6253125-.9553125-1.41-.98125-2.3540625v-6.6696875c-.02-.9440625-.3440625-1.73-.9720312-2.35796875-.628125-.62859375-1.4146875-.95203125-2.3585938-.971875h-3.33v16.66031245l-13.3390625-16.66062495h-3.33062495c-.9440625.02-1.73.3434375-2.35796875.97203125-.62859375.628125-.95203125 1.4140625-.971875 2.3578125v6.67c-.02609375.9440625-.3528125 1.72875-.98140625 2.3540625-.628125.6245312-1.4140625.95-2.35796875.9759375.94390625.0265625 1.73.3520312 2.3578125.9765625.62875.6253125.95546875 1.41.98140625 2.3540625v6.6696875c.02.9432812.3434375 1.73.97203125 2.3579687.628125.628125 1.4140625.9520313 2.3578125.971875h3.3307812v-16.66l13.3390625 16.6604688h3.33c.9439063-.02 1.730625-.3440625 2.3585938-.9720313.628125-.628125.9520312-1.4146875.971875-2.3578125v-6.67c.0260937-.9440625.3528125-1.72875.9814062-2.3540625.628125-.6245312 1.4140625-.95 2.3579688-.9765625-.9439063-.0260937-1.73-.3514062-2.3578125-.9759375z" fill="#717982" transform="translate(465 104)"/></g></g></svg>