<svg height="24" viewBox="0 0 24 24" width="24" xmlns="http://www.w3.org/2000/svg"><path d="m12.0000238 0c3.2589805 0 3.6676333.01381388 4.9475609.07221326 1.27726.05825647 2.1495829.26113 2.9128713.55779502.7891061.30662054 1.4583172.71694046 2.12548 1.38405568.6671153.66716286 1.0774352 1.33637398 1.3841034 2.12548006.2966173.76328842.4994909 1.63561124.5577473 2.91287133.0583994 1.27992759.0722133 1.68858032.0722133 4.94760845 0 3.2589805-.0138139 3.6676333-.0722133 4.9475609-.0582564 1.27726-.26113 2.1495829-.5577473 2.9128713-.3066682.7891061-.7169881 1.4583172-1.3841034 2.12548-.6671628.6671153-1.3363739 1.0774352-2.12548 1.3841034-.7632884.2966173-1.6356113.4994909-2.9128713.5577473-1.2799276.0583994-1.6885804.0722133-4.9475609.0722133-3.25902813 0-3.66768086-.0138139-4.94760845-.0722133-1.27726009-.0582564-2.14958291-.26113-2.91287133-.5577473-.78910608-.3066682-1.4583172-.7169881-2.12548006-1.3841034-.66711522-.6671628-1.07743514-1.3363739-1.38405568-2.12548-.29666502-.7632884-.49953855-1.6356113-.55779502-2.9128713-.05839938-1.2799276-.07221326-1.6885804-.07221326-4.9475609 0-3.25902813.01381388-3.66768086.07221326-4.94760845.05825647-1.27726009.26113-2.14958291.55779502-2.91287133.30662054-.78910608.71694046-1.4583172 1.38405568-2.12548006.66716286-.66711522 1.33637398-1.07743514 2.12548006-1.38405568.76328842-.29666502 1.63561124-.49953855 2.91287133-.55779502 1.27992759-.05839938 1.68858032-.07221326 4.94760845-.07221326zm0 2.1621583c-3.20415367 0-3.58370198.01224196-4.84905355.06997446-1.16998815.05335016-1.80537908.2488404-2.22822677.41317796-.56012908.21768773-.95987424.47772214-1.37976861.89766415-.41994201.41989437-.67997642.81963953-.89766415 1.37976861-.16433756.42284769-.3598278 1.05823862-.41317796 2.22822677-.0577325 1.26535157-.06997446 1.64489988-.06997446 4.84905355 0 3.2041061.01224196 3.5836544.06997446 4.849006.05335016 1.1699881.2488404 1.805379.41317796 2.2282267.21768773.5601291.47776978.9598743.89766415 1.3797686.41989437.419942.81963953.6799765 1.37976861.8976642.42284769.1643375 1.05823862.3598278 2.22822677.4131779 1.26520866.0577325 1.64466171.0699745 4.84905355.0699745 3.2043442 0 3.5838449-.012242 4.849006-.0699745 1.1699881-.0533501 1.805379-.2488404 2.2282267-.4131779.5601291-.2176877.9598743-.4777222 1.3797686-.8976642.419942-.4198943.6799765-.8196395.8976642-1.3797686.1643375-.4228477.3598278-1.0582386.4131779-2.2282267.0577325-1.2653516.0699745-1.6448999.0699745-4.849006 0-3.20415367-.012242-3.58370198-.0699745-4.84905355-.0533501-1.16998815-.2488404-1.80537908-.4131779-2.22822677-.2176877-.56012908-.4777222-.95987424-.8976642-1.37976861-.4198943-.41994201-.8196395-.67997642-1.3797686-.89766415-.4228477-.16433756-1.0582386-.3598278-2.2282267-.41317796-1.2653516-.0577325-1.6448999-.06997446-4.849006-.06997446zm0 3.6756834c3.4032641 0 6.1621345 2.75887036 6.1621345 6.1621821 0 3.4032641-2.7588704 6.1621345-6.1621345 6.1621345-3.40331174 0-6.1621821-2.7588704-6.1621821-6.1621345 0-3.40331174 2.75887036-6.1621821 6.1621821-6.1621821zm0 10.1621583c2.2091255 0 3.9999762-1.7908507 3.9999762-3.9999762 0-2.20917311-1.7908507-4.0000238-3.9999762-4.0000238-2.20917311 0-4.0000238 1.79085069-4.0000238 4.0000238 0 2.2091255 1.79085069 3.9999762 4.0000238 3.9999762zm7.845618-10.40561606c0 .79529852-.6447272 1.43997809-1.4400257 1.43997809-.7952509 0-1.4399781-.64467957-1.4399781-1.43997809 0-.79529851.6447272-1.44002572 1.4399781-1.44002572.7952985 0 1.4400257.64472721 1.4400257 1.44002572z" fill="#717982" fill-rule="evenodd"/></svg>