<svg height="24" viewBox="0 0 24 24" width="24" xmlns="http://www.w3.org/2000/svg"><path d="m23 22h-4.8623001v-7.0307998c0-1.8403022-.7605832-3.0966254-2.4330903-3.0966254-1.2792803 0-1.9907103.847794-2.3218485 1.6648524-.1241769.2932701-.1047743.7017993-.1047743 1.1103285v7.3522443h-4.81702725s.06208843-12.45437664 0-13.58647628h4.81702725v2.13229178c.284572-.93231739 1.8238476-2.26291866 4.2802211-2.26291866 3.0475071 0 5.4417921 1.95428056 5.4417921 6.16251526zm-19.41039511-15.28590638h-.03104421c-1.55221073 0-2.55856068-1.03861177-2.55856068-2.35512583 0-1.34212717 1.03610066-2.35896779 2.6193556-2.35896779 1.58196143 0 2.55468015 1.01427931 2.58572436 2.35512582 0 1.31651406-1.00376293 2.3589678-2.61547507 2.3589678zm-2.03468956 1.6994301h4.28798213v13.58647628h-4.28798213z" fill="#717982" fill-rule="evenodd"/></svg>