<svg height="80" viewBox="0 0 80 80" width="80" xmlns="http://www.w3.org/2000/svg"><g fill="none" fill-rule="evenodd"><circle cx="40" cy="40" fill="#ff4d6a" fill-rule="nonzero" r="40"/><g fill="#fff" transform="translate(20 19)"><path d="m9.4414 22.002 5.08-15.242 3.318 5.528-2.776 9.714h4.16l2.7-9.452c.152-.53.076-1.102-.208-1.576l-6-10c-.404-.672-1.164-1.048-1.934-.96-.776.086-1.432.614-1.678 1.356l-7.042 21.124c.934-.29 1.91-.492 2.938-.492z"/><path d="m34 6.002c-3.308 0-6 2.692-6 6v10h4v-4h2v-4h-2v-2c0-1.102.898-2 2-2s2 .898 2 2v10.848c1.602.704 2.966 1.828 4 3.216v-14.064c0-3.308-2.692-6-6-6"/><path d="m32 34.002c-1.104 0-2-.894-2-2 0-1.102.896-2 2-2s2 .898 2 2c0 1.106-.896 2-2 2m-24 0c-1.104 0-2-.894-2-2 0-1.102.896-2 2-2s2 .898 2 2c0 1.106-.896 2-2 2m24-10h-24c-4.412 0-8 3.588-8 8s3.588 8 8 8h24c4.412 0 8-3.588 8-8s-3.588-8-8-8"/></g></g></svg>