<svg height="80" viewBox="0 0 80 80" width="80" xmlns="http://www.w3.org/2000/svg"><g fill="none" fill-rule="evenodd"><circle cx="40" cy="40" fill="#6e66ff" fill-rule="nonzero" r="40"/><path d="m31 34.001c-2.756 0-5-2.244-5-5s2.244-5 5-5 5 2.244 5 5-2.244 5-5 5m-22 0c-2.756 0-5-2.244-5-5s2.244-5 5-5 5 2.244 5 5-2.244 5-5 5m30.912-6.588-7.25-23.564c-.71-2.3-2.804-3.848-5.21-3.848-3.006 0-5.452 2.446-5.452 5.452v2.548h-4v-2.548c0-3.006-2.446-5.452-5.452-5.452-2.406 0-4.5 1.548-5.21 3.848l-7.25 23.564c-.058.19-.088.388-.088.588v1c0 4.964 4.038 9 9 9s9-4.036 9-9v-9h4v9c0 4.964 4.038 9 9 9s9-4.036 9-9v-1c0-.2-.03-.398-.088-.588" fill="#fff" transform="translate(20 21)"/></g></svg>