<svg height="80" viewBox="0 0 80 80" width="80" xmlns="http://www.w3.org/2000/svg"><g fill="none" fill-rule="evenodd"><circle cx="40" cy="40" fill="#4dccff" fill-rule="nonzero" r="40"/><g fill="#fff" transform="translate(19 20)"><path d="m38.5186 1.7598c-2.344-2.346-6.14-2.346-8.484 0l-17.508 17.506c2.224-.148 4.494.594 6.194 2.292 1.698 1.7 2.44 3.972 2.29 6.196l17.508-17.51c1.124-1.126 1.758-2.65 1.758-4.242 0-1.594-.634-3.118-1.758-4.242"/><path d="m5.4776 24.3868c-5.566 5.566.762 8.424-5.478 14.666 0 0 10.326 1.314 15.89-4.252 2.878-2.876 2.878-7.538 0-10.414-2.876-2.874-7.538-2.874-10.412 0"/></g></g></svg>