<svg height="80" viewBox="0 0 80 80" width="80" xmlns="http://www.w3.org/2000/svg"><g fill="none" fill-rule="evenodd"><circle cx="40" cy="40" fill="#57d96c" fill-rule="nonzero" r="40"/><path d="m36 20.001c-1.104 0-2-.894-2-2 0-1.104.896-2 2-2s2 .896 2 2c0 1.106-.896 2-2 2zm0 8c-1.104 0-2-.894-2-2 0-1.104.896-2 2-2s2 .896 2 2c0 1.106-.896 2-2 2zm-6-8c-1.104 0-2-.894-2-2 0-1.104.896-2 2-2s2 .896 2 2c0 1.106-.896 2-2 2zm0 8c-1.104 0-2-.894-2-2 0-1.104.896-2 2-2s2 .896 2 2c0 1.106-.896 2-2 2zm2 8h-16v-4h16zm-20-16c-1.104 0-2-.894-2-2 0-1.104.896-2 2-2s2 .896 2 2c0 1.106-.896 2-2 2zm0 8c-1.104 0-2-.894-2-2 0-1.104.896-2 2-2s2 .896 2 2c0 1.106-.896 2-2 2zm6-4c1.104 0 2 .896 2 2 0 1.106-.896 2-2 2s-2-.894-2-2c0-1.104.896-2 2-2zm0-8c1.104 0 2 .896 2 2 0 1.106-.896 2-2 2s-2-.894-2-2c0-1.104.896-2 2-2zm6 8c1.104 0 2 .896 2 2 0 1.106-.896 2-2 2s-2-.894-2-2c0-1.104.896-2 2-2zm0-8c1.104 0 2 .896 2 2 0 1.106-.896 2-2 2s-2-.894-2-2c0-1.104.896-2 2-2zm20-4h-18v-2c0-1.102.898-2 2-2h2c3.308 0 6-2.692 6-6v-2h-4v2c0 1.102-.898 2-2 2h-2c-3.308 0-6 2.692-6 6v2h-18c-2.206 0-4 1.794-4 4v20c0 2.206 1.794 4 4 4h40c2.206 0 4-1.794 4-4v-20c0-2.206-1.794-4-4-4z" fill="#fff" transform="translate(16 18)"/></g></svg>