<svg height="80" viewBox="0 0 80 80" width="80" xmlns="http://www.w3.org/2000/svg"><g fill="none" fill-rule="evenodd"><circle cx="40" cy="40" fill="#fac519" fill-rule="nonzero" r="40"/><g fill="#fff" transform="translate(18 20)"><path d="m10 12.001h-8c-1.104 0-2 .896-2 2v20c0 1.104.896 2 2 2h8c1.104 0 2-.896 2-2v-20c0-1.104-.896-2-2-2"/><path d="m45.5352 10.7198c-.38-.454-.942-.718-1.536-.718h-12v-8c0-1.104-.894-2-2-2h-6c-.798 0-1.522.476-1.836 1.212l-6.164 12.788v18.954l7.258 2.902c.236.094.488.144.742.144h16c.968 0 1.796-.692 1.968-1.644l4-22c.108-.582-.052-1.182-.432-1.638"/></g></g></svg>