<svg height="24" viewBox="0 0 24 24" width="24" xmlns="http://www.w3.org/2000/svg"><path d="m24 4.36764175c-.8818454.40158902-1.8313083.67316721-2.8272583.79451065 1.0170805-.624052 1.7974995-1.61357891 2.1651699-2.7923438-.9522803.57782593-2.0045783.99819429-3.1287198 1.2235464-.8959324-.98085951-2.1764396-1.593355-3.5935905-1.593355-2.7173798 0-4.9219933 2.26074395-4.9219933 5.04875406 0 .39581076.042261.78006501.1267829 1.1498736-4.09226975-.21090646-7.71966894-2.21885157-10.14967422-5.2769953-.42401832.74828458-.6663145 1.61646804-.6663145 2.54098953 0 1.75081256.86916711 3.29649693 2.1905265 4.20223907-.80577566-.0245576-1.56647297-.25424341-2.23137876-.62983026v.06211628c0 2.44709282 1.69748195 4.48826292 3.9513999 4.95052362-.41274873.1184544-.84803663.1776815-1.29741152.1776815-.31695721 0-.62687093-.0303358-.92692376-.089563.62687093 2.005056 2.44409227 3.465511 4.59940131 3.5045143-1.68480366 1.3550018-3.80912133 2.1625135-6.11516112 2.1625135-.39725304 0-.79027998-.023113-1.17485473-.0693391 2.17925691 1.4301192 4.76844515 2.2665222 7.54780771 2.2665222 9.05793269 0 14.00950869-7.6923077 14.00950869-14.36475262 0-.21957385-.0042261-.43914771-.0126783-.65438786.9621413-.71217046 1.7974996-1.60057783 2.4553619-2.61321777" fill="#717982" fill-rule="evenodd"/></svg>